<svg xmlns="http://www.w3.org/2000/svg" data-name="Layer 5" viewBox="0 0 140 129.78" style="fill: rgb(0, 0, 0);"
    original_string_length="1131">
    <path
        d="M119.72,559.13l45,45a19.51,19.51,0,0,1,0,27.59l-45,45c-12.29,12.29-33.31,3.58-33.3-13.81l0-45,0-45C86.41,555.55,107.43,546.84,119.72,559.13Z"
        transform="translate(-86.42 -552.76)" style="fill: rgb(114, 255, 255);" />
    <path
        d="M119.72,559.13c-12.22-12.22-33-3.68-33.29,13.49,0,0,70.81,67,59.55,77.92l18.78-18.78a19.51,19.51,0,0,0,0-27.59Z"
        transform="translate(-86.42 -552.76)" style="fill: rgb(0, 215, 255);" />
    <circle cx="127.25" cy="12.75" r="12.75" style="fill: rgb(89, 6, 150);" />
    <circle cx="127.25" cy="12.75" r="12.75" style="fill: rgb(89, 6, 150);" />
    <path
        d="M220.7,604.24l-45-45c-12.08-12.09-44.28,1.93-33.26,12.95l32.36,32.37a19.49,19.49,0,0,1,0,27.58l-32.34,32.35c-9.86,9.85,21.28,24.38,33.24,12.42l45-45A19.51,19.51,0,0,0,220.7,604.24Z"
        transform="translate(-86.42 -552.76)" style="fill: rgb(0, 150, 255);" />
    <path
        d="M220.7,604.24l-45-45c-12.08-12.09-44.28,1.93-33.26,12.95l32.36,32.37a19.42,19.42,0,0,1,5.58,11.6c11.15,13.09,20.42,25.8,22.35,33.72l18-18A19.51,19.51,0,0,0,220.7,604.24Z"
        transform="translate(-86.42 -552.76)" style="fill: rgb(88, 0, 255);" />
</svg>